<svg xmlns="http://www.w3.org/2000/svg">
    <symbol id="ruler" viewBox="0 0 15.2 15.2">
        <path class="st0" d="M10,3.8c0,0,0.3-3.4-3.8-3.4c-3.2,0-2.5,0-2.5,0S1,0.4,0.4,2.6c0,2,0,5.7,0,6.1s0.6,2.4,3.5,2.4"/>
    	<path class="st0" d="M14.7,6.8c0,0,0,4.6,0,6.3s-1.6,1.6-1.6,1.6s-5,0-6.4,0s-1.5-0.8-1.5-0.8s0-1.7,0-3.4s1.2-1.6,1.2-1.6
    		s4.7,0,6.2,0S14.7,8.2,14.7,6.8s-1.4-1.7-1.4-1.7s-7.4,0-9.3,0S0.8,3.7,0.8,3.7L0.4,3.2"/>
    	<line class="st0" x1="8.9" y1="10.8" x2="8.9" y2="9"/>
    	<line class="st0" x1="12.5" y1="10.8" x2="12.5" y2="8.9"/>
    	<ellipse cx="5.2" cy="2.9" rx="1" ry="0.4"/>
    </symbol>

    <symbol id="leaf" viewBox="0 0 16 15.2">
        <path class="st0" d="M2.4,14.9c0,0,2.9-5.9,9.9-5.3"/>
	    <path class="st0" d="M4.3,12.3c0,0-0.8-5.4,5.1-5.5c4.5,0.3,6.1,2.7,6.1,2.7s-2,4.3-7,4.8c-1.6,0.1-3.6-1-3.6-1"/>
	    <path class="st0" d="M2.8,12.1c0,0-0.1-2.2-0.4-3.2S2,5.3,2.7,3.8"/>
	    <path class="st0" d="M2.3,9.4c0,0-2-1-1.8-3.8S3,0.6,3,0.6s4.1,3.7,0.6,7.9"/>
    </symbol>

    <symbol id="truck" viewBox="0 0 18.2 14.8">
        <path class="st0" d="M1.9,12h8.3c0.4,0,0.8-0.3,0.8-0.8V3c0-0.4-0.3-0.8-0.8-0.8H1.9C1.4,2.2,1.1,2.6,1.1,3v8.3
		C1.1,11.7,1.4,12,1.9,12z"/>
    	<path class="st0" d="M11.2,3.8h3.6c0,0,0.4,0,0.9,0.5c0.2,0.2,0.4,0.5,0.7,0.9c0.5,0.7,1.1,1.4,1.1,1.4s0.4,0.4,0.4,1.1
		s0,3.5,0,3.5s0.1,0.8-1.1,0.8c-0.9,0-5.1,0-6.1,0c-0.1,0-0.2,0-0.2,0"/>
	    <circle class="st1" cx="4.7" cy="12.4" r="1.9" fill="#61c4d9"/>
	    <circle class="st1" cx="14.1" cy="12.4" r="1.9" fill="#61c4d9"/>
	    <g>
		    <circle class="st1" cx="4" cy="4.2" r="3.7" fill="#61c4d9"/>
		    <polyline class="st0" points="2.7,5.5 4.1,4.4 4.1,1.9 		"/>
		    <circle cx="4" cy="4.4" r="0.5"/>
	    </g>
	    <path class="st0" d="M17.7,8.1h-4c0,0-0.6-0.1-0.6-0.8s0-1.5,0-1.5s0-0.5,0.7-0.5c0.8,0,2.5,0,2.5,0"/>
    </symbol>
</svg>